<?xml version="1.0" encoding="UTF-8"?>
<svg width="150px" height="50px" viewBox="0 0 150 50" version="1.1" xmlns="http://www.w3.org/2000/svg" xmlns:xlink="http://www.w3.org/1999/xlink">
    <title>Sci-fi_doodle_desktop@1x</title>
    <g id="Sci-fi_doodle_desktop" stroke="none" stroke-width="1" fill="none" fill-rule="evenodd">
        <g id="Group-39" transform="translate(87.000000, 3.000000)">
            <polygon id="Fill-31" fill="#BCEBE6" points="9.29749867 7.14363985 8 51.5 34 51.4618141 20.2011708 4.5"></polygon>
            <g id="Group" transform="translate(0.000000, 0.500000)">
                <path d="M27.9828673,5.31747406 C28.3618271,7.80082644 22.4081697,10.7912772 14.6852025,11.9972126 C6.96223519,13.2023071 0.395261403,12.1670864 0.0171326925,9.68289302 C-0.361827071,7.19954064 5.59183026,4.2090899 13.3147975,3.00315448 C21.0377648,1.79721905 27.6047386,2.83328073 27.9828673,5.31747406" id="Fill-33" fill="#7C6799"></path>
                <path d="M20.9981112,4.79401706 C21.0852719,5.24404435 18.1457348,6.76324936 14.286738,7.29820115 C10.4294501,7.83387879 7.11392578,7.18351678 7.02761961,6.73276364 C6.94131343,6.28346221 6.68410394,1.43986208 13.0630702,0.60223065 C19.4420365,-0.236126633 20.911805,4.34398978 20.9981112,4.79401706" id="Fill-37" fill="#EECCFF"></path>
            </g>
        </g>
        <g id="Group-40" transform="translate(5.000000, 12.000000)">
            <g id="Group-19" transform="translate(0.000000, 0.500000)" fill="#3A2110">
                <path d="M7.34415323,6.70621016 C2.94353526,6.70621016 0.680274653,10.1275033 0.680274653,14.1103432 C0.680274653,18.1721657 2.92255138,21.3333944 7.07436057,21.3333944 C11.4539947,21.3333944 13.8421593,18.0719927 13.8421593,14.1103432 C13.8831278,10.3278493 11.6198672,6.70621016 7.34415323,6.70621016 L7.34415323,6.70621016 Z M13.8831278,17.3515177 L13.8201762,17.3515177 C13.1357022,20.2526818 10.043079,21.9536964 7.13631296,21.9536964 C2.38296607,21.9536964 0.037768442,18.31183 0.037768442,14.1103432 C0.037768442,9.70754731 2.5488386,6.06568088 7.34415323,6.06568088 C10.5826643,6.06568088 13.1357022,8.14716022 13.8001915,10.8287143 L13.8621439,10.8287143 L13.8621439,6.44614564 L14.5266332,6.44614564 L14.5266332,22.3139339 C14.5266332,26.7764484 11.8696752,28.8771918 7.44807336,28.8771918 C4.001722,28.8771918 1.05398744,27.3765232 0.95106654,23.7144295 L1.61555586,23.7144295 C1.73946063,26.9758312 4.33446628,28.2376257 7.40610562,28.2376257 C11.5169463,28.2376257 13.8621439,26.3564924 13.8621439,22.2946699 L13.8621439,17.3515177 L13.8831278,17.3515177 Z" id="Fill-1"></path>
                <path d="M24.0754946,22.594322 C28.6010166,22.594322 31.0501343,18.7925641 31.0501343,14.6498326 C31.0501343,10.5677829 28.6010166,6.70630648 24.0754946,6.70630648 C19.4680356,6.70630648 17.0598863,10.5677829 17.0598863,14.6498326 C17.0598863,18.7925641 19.4680356,22.594322 24.0754946,22.594322 M24.0754946,6.0657772 C29.037681,6.0657772 31.7156229,10.1882814 31.7156229,14.6498326 C31.7156229,19.1528016 29.037681,23.2348513 24.0345261,23.2348513 C19.0733389,23.2348513 16.3744132,19.1528016 16.3744132,14.6498326 C16.3943978,10.1882814 19.0733389,6.0657772 24.0754946,6.0657772" id="Fill-3"></path>
                <path d="M40.4340225,22.594322 C44.9795291,22.594322 47.407663,18.7925641 47.407663,14.6498326 C47.407663,10.5677829 44.9585452,6.70630648 40.4340225,6.70630648 C35.8255643,6.70630648 33.4172802,10.5677829 33.4172802,14.6498326 C33.3964311,18.7925641 35.8255643,22.594322 40.4340225,22.594322 M40.4340225,6.0657772 C45.3952096,6.0657772 48.0731516,10.1882814 48.0731516,14.6498326 C48.0731516,19.1528016 45.3952096,23.2348513 40.3920547,23.2348513 C35.4308676,23.2348513 32.7529257,19.1528016 32.7529257,14.6498326 C32.7529257,10.1882814 35.4308676,6.0657772 40.4340225,6.0657772" id="Fill-5"></path>
                <path d="M56.3552864,6.70621016 C51.6848758,6.70621016 49.7753434,10.8884329 49.7753434,14.6901908 C49.7753434,18.8926407 51.9546685,22.5942257 56.3552864,22.5942257 C60.7359198,22.5942257 63.2469899,18.932132 63.2469899,14.6901908 C63.2270053,9.60737431 60.487111,6.70621016 56.3552864,6.70621016 L56.3552864,6.70621016 Z M63.2270053,0.0630065711 L63.8904954,0.0630065711 L63.8904954,22.8542902 L63.2270053,22.8542902 L63.2270053,18.2521115 L63.1640537,18.2521115 C62.3137072,21.1137843 59.8226217,23.234755 56.3552864,23.234755 C51.8507483,23.234755 49.110854,19.6323798 49.110854,14.6901908 C49.110854,10.0880121 51.6638919,6.06568088 56.3552864,6.06568088 C59.9675103,6.06568088 62.3746603,8.0874417 63.1640537,11.0483244 L63.2270053,11.0483244 L63.2270053,0.0630065711 Z" id="Fill-7"></path>
                <path d="M67.108822,6.3858492 L69.0183544,6.3858492 L69.0183544,10.2482889 L69.081306,10.2482889 C70.1394928,7.60718922 72.4637066,6.02561168 75.5373444,6.16527596 L75.5373444,8.16680953 C71.7582487,7.96646354 69.184227,10.6480177 69.184227,14.0702741 L69.184227,22.8546755 L67.0878381,22.8546755 L67.0878381,6.3858492 L67.108822,6.3858492 Z" id="Fill-9"></path>
                <path d="M88.3863694,13.4697177 C88.2824493,10.4481533 86.3309491,7.58648038 82.9475494,7.58648038 C79.5641496,7.58648038 77.6746018,10.4683805 77.3418575,13.4697177 L88.3863694,13.4697177 Z M77.3418575,15.150505 C77.3638406,18.0921236 78.9616127,21.6338171 82.967534,21.6338171 C86.0201879,21.6338171 87.6589285,19.9125752 88.324417,17.4313671 L90.4198067,17.4313671 C89.5284917,21.1734065 87.2652311,23.3348316 82.967534,23.3348316 C77.5496978,23.3348316 75.2664525,19.3125005 75.2664525,14.630376 C75.2664525,10.2882617 77.5496978,5.92592029 82.967534,5.92592029 C88.4693057,5.92592029 90.6486308,10.5483263 90.4827583,15.1707322 L77.3418575,15.1707322 L77.3418575,15.150505 Z" id="Fill-11"></path>
                <path d="M103.394335,13.8497971 L103.332383,13.8497971 C103.06259,14.3304349 102.128308,14.4903264 101.567739,14.5904994 C98.0174676,15.1905742 93.6178489,15.170347 93.6178489,18.3922573 C93.6178489,20.413055 95.4644297,21.653659 97.4169291,21.653659 C100.591489,21.653659 103.415319,19.7128072 103.373351,16.4908968 L103.373351,13.8497971 L103.394335,13.8497971 Z M92.2678863,11.4283075 C92.4547427,7.56683106 95.2775733,5.90530777 99.1805737,5.90530777 C102.190261,5.90530777 105.470739,6.80686476 105.470739,11.2086975 L105.470739,19.9526444 C105.470739,20.7126108 105.865436,21.1739845 106.695798,21.1739845 C106.923623,21.1739845 107.193416,21.1133027 107.359288,21.0535842 L107.359288,22.7343716 C106.902639,22.8345446 106.570894,22.8547718 105.989341,22.8547718 C103.871968,22.8547718 103.540223,21.7143407 103.540223,19.9728717 L103.477272,19.9728717 C102.024388,22.1140695 100.530536,23.3142191 97.2500574,23.3142191 C94.1154664,23.3142191 91.5204608,21.8145137 91.5204608,18.4924303 C91.5204608,13.8700244 96.1908714,13.7091697 100.696409,13.1890406 C102.418086,12.9896578 103.373351,12.7690846 103.373351,10.948633 C103.373351,8.22758757 101.359899,7.56683106 98.8897972,7.56683106 C96.3157754,7.56683106 94.3852591,8.72748937 94.3233067,11.4080803 L92.2678863,11.4080803 L92.2678863,11.4283075 Z" id="Fill-13"></path>
                <path d="M115.787211,21.6339134 C120.229797,21.6339134 121.7866,18.0315382 121.7866,14.610245 C121.7866,11.1879886 120.229797,7.5865767 115.787211,7.5865767 C111.822258,7.5865767 110.183518,11.1879886 110.183518,14.610245 C110.183518,18.0315382 111.802273,21.6339134 115.787211,21.6339134 L115.787211,21.6339134 Z M123.863004,22.8542902 L121.952473,22.8542902 L121.952473,19.7123256 L121.89052,19.7123256 C120.998206,21.8544866 118.278296,23.3147007 115.808195,23.3147007 C110.598199,23.3147007 108.128097,19.2721423 108.128097,14.610245 C108.128097,9.94834779 110.598199,5.90578937 115.808195,5.90578937 C118.361233,5.90578937 120.832334,7.14639343 121.723649,9.50816452 L121.7866,9.50816452 L121.7866,0.0630065711 L123.863004,0.0630065711 L123.863004,22.8542902 Z" id="Fill-15"></path>
                <path d="M137.23163,11.1882776 C137.12771,8.70706949 135.155226,7.58686566 132.768061,7.58686566 C130.92048,7.58686566 128.741155,8.28711345 128.741155,10.4283113 C128.741155,12.2092716 130.858528,12.8498009 132.290428,13.2100384 L135.07229,13.8101132 C137.460454,14.1703507 139.929557,15.5101646 139.929557,18.3718375 C139.929557,21.9539854 136.25538,23.3140265 133.079821,23.3140265 C129.114868,23.3140265 126.394958,21.5340293 126.063213,17.5116982 L128.138618,17.5116982 C128.304491,20.2134795 130.401879,21.6342023 133.182742,21.6342023 C135.134242,21.6342023 137.854152,20.8135543 137.854152,18.5124649 C137.854152,16.5908771 136.005572,15.9705751 134.118023,15.5101646 L131.439082,14.930317 C128.720171,14.2300692 126.664751,13.3294755 126.664751,10.5275211 C126.664751,7.18617367 130.069135,5.90607833 133.079821,5.90607833 C136.484205,5.90607833 139.203115,7.62635694 139.328019,11.2085049 L137.23163,11.2085049 L137.23163,11.1882776 Z" id="Fill-17"></path>
            </g>
            <g id="Group-30" transform="translate(0.000000, 18.500000)">
                <path d="M51.9447645,10.3705957 L50.9857366,7.04644658 L47.9339231,8.2901236 C47.9339231,8.2901236 40.630022,8.03774161 39.826861,7.74601491 C39.0236999,7.4542882 36.1039265,4.60899317 36.1039265,4.60899317 L31.0873964,3.52365466 C31.0873964,3.52365466 21.5507274,5.79509255 18.4929572,0.106421739 L17.3919614,0.106421739 C17.3919614,0.106421739 15.5900611,9.28045901 23.6991088,10.5107012 C23.6991088,10.5107012 23.8103005,11.1929963 22.995226,11.1574901 C21.5765398,11.0941547 18.8265322,10.2659963 18.3897079,10.0068969 C18.3897079,10.0068969 19.790524,16.323164 27.3525485,14.9470584 C27.3525485,14.9470584 28.2649157,15.8395118 27.1023673,16.021841 C25.9378334,16.2041702 23.2056959,16.160987 22.2307835,16.0314373 C22.2307835,16.0314373 25.9557035,20.6242137 32.2281035,20.4015801 L34.5293734,20.9303348 L50.9122707,20.9303348 L49.7000832,16.7521174 L46.7902376,17.103341 L33.2198932,12.7859776 L38.8648547,13.2552354 L51.9447645,10.3705957 Z" id="Combined-Shape" fill="#E77400"></path>
                <path d="M36.5556425,9.81353199 C36.3292881,10.5620413 34.7646629,10.7779575 33.0600553,10.2971842 C31.3554477,9.81545124 30.1571591,8.81935807 30.3825208,8.07084876 C30.6088752,7.32233944 32.1735005,7.10642329 33.8791008,7.58815621 C35.5837084,8.0689295 36.7819969,9.0659823 36.5556425,9.81353199" id="Fill-22" fill="#41395E"></path>
                <path d="M33.2195954,12.7860736 L38.8655496,13.2553314 L51.9444666,10.3706916 C51.9444666,10.3706916 56.1528718,6.39111708 65.2596659,6.67420714 L65.3926988,6.93330652 C63.2939565,7.6031264 59.7487301,8.73068851 58.5752611,9.97628478 L60.0346515,9.98588106 C60.0346515,9.98588106 67.9054313,6.72986553 76.5198053,9.22873509 C82.6472591,11.0059649 84.4680222,10.7516637 85.7784952,10.2689711 L85.9462754,10.4532196 C85.9462754,10.4532196 78.6910207,17.5630984 61.9566784,16.0497661 L61.7769848,16.768527 L64.9280765,19.5322537 L64.7712169,19.8191823 C64.7712169,19.8191823 55.517491,17.2281885 49.7007781,16.7522134 L46.7899398,17.103437 L32.9535297,13.3301823 L33.2195954,12.7860736 Z" id="Fill-24" fill="#FEB400"></path>
                <path d="M24.1409963,19.4163307 C23.3864816,18.9010109 22.1395467,18.3425078 21.5637329,17.6371817 C21.1308797,17.1074674 20.8697779,16.3963835 20.9382799,15.7227252 C19.7429697,14.7582997 18.5933276,13.6988711 17.7732892,12.4388804 C8.32696344,14.8225947 0.000496391263,18.8520699 0.000496391263,18.8520699 L0.000496391263,20.9306227 L24.8945183,20.9306227 L24.8945183,19.889427 C24.6423515,19.7339674 24.3862136,19.5833059 24.1409963,19.4163307" id="Fill-26" fill="#E77400"></path>
                <path d="M74.6652876,11.9174189 L74.5322547,11.4481612 C70.6584173,11.6458444 66.3566906,11.5805898 63.7337592,11.4337668 C61.1108277,11.2859842 53.7076484,12.5526922 53.7076484,12.5526922 L56.229316,10.7850587 L55.9483586,10.4539873 C50.1435591,14.0257202 38.8645569,13.2551394 38.8645569,13.2551394 L33.2195954,12.7858817 L32.9535297,13.33095 L40.0499392,15.2655587 C40.0499392,15.2655587 44.3536514,16.3096332 48.7586275,15.4843537 C53.1655892,14.6590742 60.0177742,16.7203537 60.0177742,16.7203537 L60.2689481,16.3259469 L57.1178564,14.4546736 L57.2121707,14.1351177 C65.7352087,14.7809469 70.2335064,13.8779376 74.6652876,11.9174189" id="Fill-28" fill="#FFE486"></path>
            </g>
        </g>
    </g>
</svg>